<?xml version="1.0" standalone="no"?>
<!DOCTYPE svg PUBLIC "-//W3C//DTD SVG 20010904//EN"
 "http://www.w3.org/TR/2001/REC-SVG-20010904/DTD/svg10.dtd">
<svg version="1.0" xmlns="http://www.w3.org/2000/svg"
 width="300.000000pt" height="63.000000pt" viewBox="0 0 300.000000 63.000000"
 preserveAspectRatio="xMidYMid meet">
<metadata>
Created by potrace 1.10, written by Peter Selinger 2001-2011
</metadata>
<g transform="translate(0.000000,63.000000) scale(0.100000,-0.100000)"
fill="#000000" stroke="none">
<path d="M1999 615 c-144 -46 -227 -167 -217 -319 8 -126 80 -222 197 -267 72
-27 187 -23 251 9 l43 21 34 -29 33 -29 42 45 43 46 -29 24 -28 25 22 52 c65
150 -1 332 -146 403 -68 33 -175 42 -245 19z m169 -129 c36 -19 78 -65 91 -99
12 -31 15 -116 5 -142 -6 -13 -16 -8 -56 32 l-48 48 -40 -45 c-21 -25 -39 -48
-40 -51 0 -4 21 -24 46 -44 54 -44 47 -55 -34 -55 -81 0 -135 36 -167 112 -37
90 -5 187 80 239 36 23 124 25 163 5z"/>
<path d="M0 320 l0 -300 230 0 230 0 0 55 0 55 -165 0 -165 0 0 65 0 65 145 0
145 0 0 60 0 60 -145 0 -145 0 0 60 0 60 165 0 165 0 0 60 0 60 -230 0 -230 0
0 -300z"/>
<path d="M880 560 l0 -60 90 0 90 0 0 -240 0 -240 70 0 70 0 0 240 0 240 90 0
90 0 0 60 0 60 -250 0 -250 0 0 -60z"/>
<path d="M2860 90 l0 -70 70 0 70 0 0 70 0 70 -70 0 -70 0 0 -70z"/>
</g>
</svg>
