<?xml version="1.0" standalone="no"?>
<!DOCTYPE svg PUBLIC "-//W3C//DTD SVG 20010904//EN"
 "http://www.w3.org/TR/2001/REC-SVG-20010904/DTD/svg10.dtd">
<svg version="1.0" xmlns="http://www.w3.org/2000/svg"
 width="900.000000pt" height="900.000000pt" viewBox="0 0 900.000000 900.000000"
 preserveAspectRatio="xMidYMid meet">
<metadata>
Created by potrace 1.10, written by Peter Selinger 2001-2011
</metadata>
<g transform="translate(0.000000,900.000000) scale(0.100000,-0.100000)"
fill="#ffffff" stroke="none">
<path d="M6135 5421 c-33 -4 -76 -12 -95 -19 -19 -6 -62 -20 -96 -31 -253 -82
-472 -297 -567 -556 -46 -127 -50 -151 -50 -318 1 -121 5 -177 16 -209 8 -24
23 -70 33 -103 10 -33 23 -67 29 -75 6 -8 26 -46 45 -84 26 -52 61 -96 141
-176 59 -59 126 -117 150 -129 24 -13 73 -38 109 -57 36 -18 81 -36 100 -40
19 -4 43 -11 53 -16 25 -13 218 -38 292 -38 70 0 226 24 254 39 11 6 27 11 36
11 9 0 63 23 121 51 l106 50 61 -52 c34 -29 75 -66 91 -81 17 -15 37 -28 46
-28 14 0 65 52 204 207 21 24 36 49 33 56 -3 8 -37 40 -75 73 -39 32 -73 67
-77 76 -3 10 8 41 27 75 54 96 91 209 108 336 14 98 -2 310 -27 359 -7 15 -13
36 -13 47 0 24 -48 129 -96 211 -38 65 -157 190 -234 247 -67 49 -176 105
-250 128 -30 10 -73 23 -95 31 -47 15 -294 25 -380 15z m269 -385 c68 -18 166
-71 216 -118 44 -41 120 -143 120 -161 0 -7 5 -18 12 -25 26 -26 41 -110 45
-246 3 -114 1 -147 -13 -187 -18 -48 -35 -61 -51 -36 -4 7 -57 57 -118 112
-60 54 -116 105 -123 112 -27 26 -21 32 -169 -139 -51 -58 -93 -112 -93 -120
0 -9 15 -27 33 -41 17 -13 46 -37 62 -52 17 -14 60 -51 98 -82 37 -30 67 -62
67 -69 0 -18 -24 -28 -123 -49 -199 -44 -405 33 -530 199 -132 175 -155 407
-61 612 28 61 86 139 134 181 52 45 157 99 220 111 30 7 64 14 75 16 33 8 136
-2 199 -18z"/>
<path d="M653 5392 l-653 -2 0 -900 0 -900 685 0 685 0 -2 178 -3 177 -490 5
-490 5 -3 155 c-2 85 0 170 3 188 l6 32 402 0 c221 0 412 3 425 6 22 6 22 7
20 173 l-3 166 -418 5 c-357 4 -419 7 -427 20 -5 8 -10 83 -10 167 0 125 3
154 16 167 14 14 72 16 489 16 422 0 474 2 479 16 9 23 7 312 -1 317 -20 11
-99 12 -710 9z"/>
<path d="M2639 5389 c-6 -3 -8 -80 -7 -180 l3 -174 270 -5 270 -5 5 -715 5
-715 195 0 195 0 5 715 5 715 259 3 c171 1 264 6 273 13 18 16 19 337 1 344
-19 7 -1468 11 -1479 4z"/>
<path d="M8572 3808 l3 -203 213 -3 212 -2 0 205 0 205 -215 0 -215 0 2 -202z"/>
</g>
</svg>
